<svg width="30" height="30" viewBox="0 0 30 30" fill="none" xmlns="http://www.w3.org/2000/svg">
<path d="M6 12H23C26 12 27 11 27 8.25V5.75C27 3 26 2 23 2H6.00001C3 2 2 3 2 5.75V8.25C2 11 3 12 6 12Z" stroke="#303030" stroke-width="2" stroke-miterlimit="10" stroke-linecap="round" stroke-linejoin="round"/>
<path d="M6 28H23C26 28 27 27 27 24.25V21.75C27 19 26 18 23 18H6.00001C3 18 2 19 2 21.75V24.25C2 27 3 28 6 28Z" stroke="#303030" stroke-width="2" stroke-miterlimit="10" stroke-linecap="round" stroke-linejoin="round"/>
</svg>
