<svg width="22" height="26" viewBox="0 0 22 26" fill="none" xmlns="http://www.w3.org/2000/svg">
<path d="M21 11.75C21 14.5856 19.5706 17.1531 17.7926 19.25C15.8806 21.5049 13.5656 23.2155 12.1916 24.1299C11.4646 24.6135 10.5354 24.6135 9.80837 24.1299C8.4344 23.2155 6.11935 21.5049 4.20739 19.25C2.42941 17.1531 1 14.5856 1 11.75C1 6.22715 5.47715 1.75 11 1.75C16.5229 1.75 21 6.22715 21 11.75Z" stroke="#303030" stroke-width="2"/>
<path d="M14.75 11.75C14.75 13.8211 13.0711 15.5 11 15.5C8.92887 15.5 7.25 13.8211 7.25 11.75C7.25 9.67894 8.92887 8 11 8C13.0711 8 14.75 9.67894 14.75 11.75Z" stroke="#303030" stroke-width="2"/>
</svg>
