<svg width="26" height="22" viewBox="0 0 26 22" fill="none" xmlns="http://www.w3.org/2000/svg">
<path d="M1.75 5C1.75 3.59986 1.75 2.8998 2.02249 2.36503C2.26216 1.89461 2.64461 1.51216 3.11503 1.27249C3.6498 1 4.34987 1 5.75 1H20.25C21.6501 1 22.3503 1 22.885 1.27249C23.3554 1.51216 23.7379 1.89461 23.9775 2.36503C24.25 2.8998 24.25 3.59987 24.25 5V21L20.0946 18.9222C19.7796 18.7647 19.6221 18.686 19.457 18.6305C19.3105 18.5813 19.1596 18.5456 19.0065 18.5241C18.834 18.5 18.6579 18.5 18.3058 18.5H5.75C4.34986 18.5 3.6498 18.5 3.11503 18.2275C2.64461 17.9879 2.26216 17.6054 2.02249 17.135C1.75 16.6003 1.75 15.9001 1.75 14.5V5Z" stroke="#303030" stroke-width="2" stroke-linecap="round" stroke-linejoin="round"/>
</svg>
