<svg width="34" height="34" viewBox="0 0 34 34" fill="none" xmlns="http://www.w3.org/2000/svg">
<path d="M30.8032 16.7037C32.2414 16.7037 33.4281 15.5308 33.2048 14.11C33.0003 12.809 32.6422 11.5338 32.1359 10.3115C31.2965 8.28488 30.0661 6.44348 28.515 4.8924C26.9639 3.34132 25.1225 2.11093 23.0959 1.27149C21.8736 0.765196 20.5984 0.407096 19.2974 0.202604C17.8766 -0.0207325 16.7037 1.16596 16.7037 2.60425V2.60425C16.7037 4.04254 17.8842 5.17917 19.2857 5.50224C19.905 5.64498 20.5128 5.83917 21.1027 6.08352C22.4974 6.66121 23.7646 7.50794 24.832 8.57536C25.8995 9.64279 26.7462 10.91 27.3239 12.3047C27.5682 12.8946 27.7624 13.5024 27.9052 14.1217C28.2282 15.5232 29.3649 16.7037 30.8032 16.7037V16.7037Z" fill="#303030"/>
</svg>
