<svg width="30" height="30" viewBox="0 0 30 30" fill="none" xmlns="http://www.w3.org/2000/svg">
<g clip-path="url(#clip0_126_124)">
<path d="M13.002 17.8887L17.9121 15.0059L13.002 12.123V17.8887Z" fill="black"/>
<path d="M15 0C6.71484 0 0 6.71484 0 15C0 23.2852 6.71484 30 15 30C23.2852 30 30 23.2852 30 15C30 6.71484 23.2852 0 15 0ZM22.5 17.6836C22.5 20.2676 19.916 20.2676 19.916 20.2676H10.084C7.5 20.2676 7.5 17.6836 7.5 17.6836V12.3223C7.5 9.73828 10.084 9.73828 10.084 9.73828H19.916C22.5 9.73828 22.5 12.3223 22.5 12.3223V17.6836Z" fill="black"/>
</g>
<defs>
<clipPath id="clip0_126_124">
<rect width="30" height="30" fill="white"/>
</clipPath>
</defs>
</svg>
