<svg width="40" height="40" viewBox="0 0 40 40" fill="none" xmlns="http://www.w3.org/2000/svg">
<path 
d="M18.7819 7.3519C19.1677 6.48626 19.3607 6.05345 19.6294 5.92016C19.8627 5.80436 20.1367 5.80436 20.37 5.92016C20.6387 6.05345 20.8317 6.48626 21.2175 7.3519L24.2909 14.2468C24.405 14.5027 24.462 14.6306 24.5504 14.7286C24.6284 14.8153 24.7239 14.8847 24.8304 14.9321C24.9509 14.9858 25.0902 15.0005 25.3689 15.0299L32.876 15.8222C33.8185 15.9217 34.2897 15.9714 34.4995 16.1858C34.6817 16.3719 34.7664 16.6326 34.7284 16.8903C34.6847 17.187 34.3327 17.5041 33.6287 18.1386L28.0209 23.1923C27.8129 23.3798 27.7087 23.4736 27.6429 23.5878C27.5845 23.689 27.548 23.8011 27.5359 23.9171C27.522 24.0483 27.551 24.1853 27.6092 24.4595L29.1755 31.844C29.3722 32.7711 29.4705 33.2346 29.3315 33.5003C29.2107 33.7313 28.989 33.8923 28.7322 33.9358C28.4365 33.9858 28.026 33.7491 27.205 33.2756L20.6659 29.504C20.4232 29.364 20.3019 29.2941 20.1729 29.2666C20.0587 29.2425 19.9407 29.2425 19.8265 29.2666C19.6975 29.2941 19.5762 29.364 19.3335 29.504L12.7944 33.2756C11.9734 33.7491 11.563 33.9858 11.2673 33.9358C11.0104 33.8923 10.7887 33.7313 10.668 33.5003C10.529 33.2346 10.6273 32.7711 10.8239 31.844L12.3902 24.4595C12.4483 24.1853 12.4774 24.0483 12.4636 23.9171C12.4514 23.8011 12.4149 23.689 12.3566 23.5878C12.2907 23.4736 12.1866 23.3798 11.9785 23.1923L6.37081 18.1386C5.66679 17.5041 5.31477 17.187 5.27101 16.8903C5.23301 16.6326 5.31769 16.3719 5.49993 16.1858C5.70972 15.9714 6.18097 15.9217 7.12347 15.8222L14.6306 15.0299C14.9093 15.0005 15.0486 14.9858 15.169 14.9321C15.2756 14.8847 15.371 14.8153 15.4491 14.7286C15.5374 14.6306 15.5944 14.5027 15.7085 14.2468L18.7819 7.3519Z" 
fill="#303030" stroke="#303030" stroke-linecap="round" stroke-linejoin="round"/>
</svg>
